<svg width="85" height="85" viewBox="0 0 85 85" fill="none" xmlns="http://www.w3.org/2000/svg">
<path fill-rule="evenodd" clip-rule="evenodd" d="M7.96875 15.9375C7.96875 13.8241 8.80831 11.7972 10.3027 10.3027C11.7972 8.80831 13.8241 7.96875 15.9375 7.96875H69.0625C71.1759 7.96875 73.2028 8.80831 74.6973 10.3027C76.1917 11.7972 77.0313 13.8241 77.0313 15.9375V42.5C77.0313 43.2045 76.7514 43.8801 76.2533 44.3783C75.7551 44.8764 75.0795 45.1563 74.375 45.1563C73.6705 45.1563 72.9949 44.8764 72.4967 44.3783C71.9986 43.8801 71.7188 43.2045 71.7188 42.5V15.9375C71.7188 15.233 71.4389 14.5574 70.9408 14.0592C70.4426 13.5611 69.767 13.2813 69.0625 13.2813H15.9375C15.233 13.2813 14.5574 13.5611 14.0592 14.0592C13.5611 14.5574 13.2813 15.233 13.2813 15.9375V69.0625C13.2813 70.5288 14.4713 71.7188 15.9375 71.7188H42.5C43.2045 71.7188 43.8801 71.9986 44.3783 72.4967C44.8764 72.9949 45.1563 73.6705 45.1563 74.375C45.1563 75.0795 44.8764 75.7551 44.3783 76.2533C43.8801 76.7514 43.2045 77.0313 42.5 77.0313H15.9375C13.8241 77.0313 11.7972 76.1917 10.3027 74.6973C8.80831 73.2028 7.96875 71.1759 7.96875 69.0625V15.9375ZM69.151 55.7813C69.8555 55.7813 70.5312 56.0611 71.0293 56.5593C71.5274 57.0574 71.8073 57.733 71.8073 58.4375V76.1458C71.8073 76.8503 71.5274 77.5259 71.0293 78.0241C70.5312 78.5222 69.8555 78.8021 69.151 78.8021C68.4466 78.8021 67.7709 78.5222 67.2728 78.0241C66.7746 77.5259 66.4948 76.8503 66.4948 76.1458V58.4375C66.4948 57.733 66.7746 57.0574 67.2728 56.5593C67.7709 56.0611 68.4466 55.7813 69.151 55.7813Z" fill="#386CE6"/>
<path fill-rule="evenodd" clip-rule="evenodd" d="M57.5522 67.2031C57.5522 66.4986 57.8321 65.823 58.3302 65.3249C58.8284 64.8267 59.504 64.5469 60.2085 64.5469H77.9168C78.6213 64.5469 79.2969 64.8267 79.7951 65.3249C80.2932 65.823 80.5731 66.4986 80.5731 67.2031C80.5731 67.9076 80.2932 68.5832 79.7951 69.0814C79.2969 69.5795 78.6213 69.8594 77.9168 69.8594H60.2085C59.504 69.8594 58.8284 69.5795 58.3302 69.0814C57.8321 68.5832 57.5522 67.9076 57.5522 67.2031ZM42.5002 25.6771C40.8564 25.6771 39.2799 26.3301 38.1176 27.4924C36.9552 28.6547 36.3022 30.2312 36.3022 31.875C36.3022 33.5188 36.9552 35.0952 38.1176 36.2576C39.2799 37.4199 40.8564 38.0729 42.5002 38.0729C44.144 38.0729 45.7204 37.4199 46.8828 36.2576C48.0451 35.0952 48.6981 33.5188 48.6981 31.875C48.6981 30.2312 48.0451 28.6547 46.8828 27.4924C45.7204 26.3301 44.144 25.6771 42.5002 25.6771ZM30.9897 31.875C30.9897 28.8222 32.2024 25.8945 34.3611 23.7359C36.5197 21.5773 39.4474 20.3646 42.5002 20.3646C45.5529 20.3646 48.4806 21.5773 50.6393 23.7359C52.7979 25.8945 54.0106 28.8222 54.0106 31.875C54.0106 34.9277 52.7979 37.8555 50.6393 40.0141C48.4806 42.1727 45.5529 43.3854 42.5002 43.3854C39.4474 43.3854 36.5197 42.1727 34.3611 40.0141C32.2024 37.8555 30.9897 34.9277 30.9897 31.875Z" fill="#386CE6"/>
<path fill-rule="evenodd" clip-rule="evenodd" d="M23.9062 54.8959C23.9062 45.3192 32.5338 38.0729 42.5 38.0729C52.4663 38.0729 61.0938 45.3192 61.0938 54.8959C61.0938 55.6003 60.8139 56.276 60.3158 56.7741C59.8176 57.2723 59.142 57.5521 58.4375 57.5521C57.733 57.5521 57.0574 57.2723 56.5592 56.7741C56.0611 56.276 55.7813 55.6003 55.7813 54.8959C55.7813 48.8254 50.1394 43.3854 42.5 43.3854C34.8606 43.3854 29.2188 48.8254 29.2188 54.8959C29.2188 55.6003 28.9389 56.276 28.4408 56.7741C27.9426 57.2723 27.267 57.5521 26.5625 57.5521C25.858 57.5521 25.1824 57.2723 24.6842 56.7741C24.1861 56.276 23.9063 55.6003 23.9062 54.8959Z" fill="#386CE6"/>
</svg>
