<svg width="85" height="85" viewBox="0 0 85 85" fill="none" xmlns="http://www.w3.org/2000/svg">
<g clip-path="url(#clip0_125_52)">
<path d="M66.8301 33.2212C66.8301 14.9031 51.9272 0 33.6089 0C15.2908 0 0.387695 14.9031 0.387695 33.2212C0.387695 51.5394 15.2908 66.4424 33.6089 66.4424C51.9272 66.4424 66.8301 51.5395 66.8301 33.2212ZM33.6089 9.27114C20.4027 9.27114 9.65867 20.0152 9.65867 33.2214C9.65867 33.6312 9.49588 34.0242 9.20612 34.3139C8.91636 34.6037 8.52335 34.7665 8.11356 34.7665C7.70378 34.7665 7.31077 34.6037 7.02101 34.3139C6.73124 34.0242 6.56846 33.6312 6.56846 33.2214C6.56846 18.3112 18.6987 6.18093 33.6089 6.18093C34.0187 6.18093 34.4117 6.34372 34.7015 6.63348C34.9912 6.92324 35.154 7.31625 35.154 7.72603C35.154 8.13582 34.9912 8.52883 34.7015 8.81859C34.4117 9.10835 34.0187 9.27114 33.6089 9.27114Z" fill="#386CE6"/>
<path d="M82.3483 71.7843L63.8547 53.2906C60.9607 57.6361 57.1704 61.3121 52.7383 64.0717L71.3994 82.7329C72.8614 84.1948 74.8054 84.9998 76.8738 84.9998C78.9422 84.9998 80.8862 84.1948 82.3482 82.7329C85.367 79.7144 85.367 74.803 82.3483 71.7843Z" fill="#386CE6"/>
</g>
<defs>
<clipPath id="clip0_125_52">
<rect width="85" height="85" fill="white"/>
</clipPath>
</defs>
</svg>
