<svg width="85" height="85" viewBox="0 0 85 85" fill="none" xmlns="http://www.w3.org/2000/svg">
<path d="M28.3567 64.8805C28.3545 64.1672 28.4939 63.4606 28.7667 62.8015C29.0395 62.1424 29.4405 61.5441 29.9462 61.0411L33.2663 57.7218C33.7692 57.2161 34.3674 56.8151 35.0263 56.5421C35.6852 56.2692 36.3917 56.1296 37.1049 56.1315C38.555 56.1315 39.9184 56.6959 40.9444 57.7218L42.4999 59.2773L44.0562 57.7218C45.0822 56.6959 46.4464 56.1315 47.8965 56.1315C49.3466 56.1315 50.7092 56.695 51.7334 57.7201L55.0544 61.0394C55.5604 61.5427 55.9614 62.1415 56.2343 62.801C56.5072 63.4605 56.6464 64.1676 56.6439 64.8814C56.6455 65.5943 56.5058 66.3005 56.2329 66.9591C55.9599 67.6176 55.559 68.2156 55.0535 68.7183L53.5014 70.2704C54.2112 70.2721 54.926 70.2746 55.6137 70.2746C64.8761 70.2746 71.9532 69.7986 71.9532 60.1188C71.9524 49.9834 64.1978 41.6628 54.2996 40.7601H30.6976C20.8002 41.6645 13.0474 49.9843 13.0474 60.1188C13.0474 69.7978 20.1211 70.2746 29.3844 70.2746C30.0729 70.2746 30.7886 70.2721 31.4992 70.2704L29.9479 68.7191C29.442 68.2163 29.0409 67.6182 28.7677 66.9592C28.4946 66.3003 28.3549 65.5938 28.3567 64.8805Z" fill="#386CE6"/>
<path d="M42.4989 37.8386C51.7741 37.8386 59.2932 30.3195 59.2932 21.0443C59.2932 11.7691 51.7741 4.25 42.4989 4.25C33.2237 4.25 25.7046 11.7691 25.7046 21.0443C25.7046 30.3195 33.2237 37.8386 42.4989 37.8386Z" fill="#386CE6"/>
<path d="M48.3105 70.2746L52.4593 66.124C52.623 65.9606 52.7529 65.7665 52.8415 65.5528C52.9302 65.3392 52.9758 65.1101 52.9758 64.8788C52.9758 64.6475 52.9302 64.4184 52.8415 64.2047C52.7529 63.9911 52.623 63.797 52.4593 63.6335L49.1401 60.3134C48.8094 59.9839 48.3614 59.7989 47.8945 59.7992C47.4276 59.7996 46.9799 59.9851 46.6496 60.3151L42.4999 64.4657L38.3502 60.3151C38.1868 60.1513 37.9927 60.0214 37.779 59.9327C37.5654 59.844 37.3363 59.7983 37.1049 59.7983C36.8736 59.7983 36.6445 59.844 36.4308 59.9327C36.2171 60.0214 36.023 60.1513 35.8597 60.3151L32.5404 63.6344C32.3768 63.7978 32.2471 63.9918 32.1585 64.2054C32.07 64.419 32.0244 64.648 32.0244 64.8792C32.0244 65.1104 32.07 65.3394 32.1585 65.553C32.2471 65.7666 32.3768 65.9606 32.5404 66.124L36.6901 70.2746L32.5404 74.4243C32.2102 74.7546 32.0247 75.2025 32.0247 75.6695C32.0247 76.1366 32.2102 76.5845 32.5404 76.9148L35.8597 80.234C36.2039 80.5783 36.6553 80.75 37.1049 80.75C37.5554 80.75 38.0059 80.5783 38.3502 80.2349L42.4999 76.0843L46.6496 80.2349C46.993 80.5783 47.4443 80.75 47.8948 80.75C48.3462 80.75 48.7967 80.5783 49.1401 80.2349L52.4593 76.9148C52.623 76.7514 52.7529 76.5573 52.8415 76.3436C52.9302 76.1299 52.9758 75.9009 52.9758 75.6695C52.9758 75.4382 52.9302 75.2092 52.8415 74.9955C52.7529 74.7818 52.623 74.5877 52.4593 74.4243L48.3105 70.2746Z" fill="#386CE6"/>
</svg>
